<?xml version="1.0" encoding="UTF-8" standalone="no"?>
<!DOCTYPE svg PUBLIC "-//W3C//DTD SVG 1.1//EN"
 "http://www.w3.org/Graphics/SVG/1.1/DTD/svg11.dtd">
<!-- Generated by graphviz version 12.1.0 (20240811.2233)
 -->
<!-- Pages: 1 -->
<svg width="566pt" height="188pt"
 viewBox="0.00 0.00 565.62 188.00" xmlns="http://www.w3.org/2000/svg" xmlns:xlink="http://www.w3.org/1999/xlink">
<g id="graph0" class="graph" transform="scale(1 1) rotate(0) translate(4 184)">
<polygon fill="white" stroke="none" points="-4,4 -4,-184 561.62,-184 561.62,4 -4,4"/>
<!-- sales.customer_order_summary -->
<g id="node1" class="node">
<title>sales.customer_order_summary</title>
<ellipse fill="none" stroke="red" cx="129.66" cy="-90" rx="129.66" ry="18"/>
<text text-anchor="middle" x="129.66" y="-84.95" font-family="Times,serif" font-size="14.00">sales.customer_order_summary</text>
</g>
<!-- sales.customer_order_total_percentage -->
<g id="node6" class="node">
<title>sales.customer_order_total_percentage</title>
<ellipse fill="none" stroke="red" cx="208.66" cy="-18" rx="155.25" ry="18"/>
<text text-anchor="middle" x="208.66" y="-12.95" font-family="Times,serif" font-size="14.00">sales.customer_order_total_percentage</text>
</g>
<!-- sales.customer_order_summary&#45;&gt;sales.customer_order_total_percentage -->
<g id="edge1" class="edge">
<title>sales.customer_order_summary&#45;&gt;sales.customer_order_total_percentage</title>
<path fill="none" stroke="black" d="M148.78,-72.05C158.34,-63.58 170.1,-53.17 180.65,-43.82"/>
<polygon fill="black" stroke="black" points="182.87,-46.53 188.03,-37.28 178.22,-41.29 182.87,-46.53"/>
</g>
<!-- sales.customer -->
<g id="node2" class="node">
<title>sales.customer</title>
<ellipse fill="none" stroke="blue" cx="129.66" cy="-162" rx="65.68" ry="18"/>
<text text-anchor="middle" x="129.66" y="-156.95" font-family="Times,serif" font-size="14.00">sales.customer</text>
</g>
<!-- sales.customer&#45;&gt;sales.customer_order_summary -->
<g id="edge2" class="edge">
<title>sales.customer&#45;&gt;sales.customer_order_summary</title>
<path fill="none" stroke="black" d="M129.66,-143.7C129.66,-136.41 129.66,-127.73 129.66,-119.54"/>
<polygon fill="black" stroke="black" points="133.16,-119.62 129.66,-109.62 126.16,-119.62 133.16,-119.62"/>
</g>
<!-- sales.order -->
<g id="node3" class="node">
<title>sales.order</title>
<ellipse fill="none" stroke="blue" cx="287.66" cy="-162" rx="50.84" ry="18"/>
<text text-anchor="middle" x="287.66" y="-156.95" font-family="Times,serif" font-size="14.00">sales.order</text>
</g>
<!-- sales.order&#45;&gt;sales.customer_order_summary -->
<g id="edge3" class="edge">
<title>sales.order&#45;&gt;sales.customer_order_summary</title>
<path fill="none" stroke="black" d="M256.82,-147.34C234.24,-137.34 203.19,-123.58 177.42,-112.16"/>
<polygon fill="black" stroke="black" points="179.04,-109.05 168.48,-108.2 176.21,-115.45 179.04,-109.05"/>
</g>
<!-- sales.product_sales_overview -->
<g id="node4" class="node">
<title>sales.product_sales_overview</title>
<ellipse fill="none" stroke="red" cx="436.66" cy="-90" rx="120.96" ry="18"/>
<text text-anchor="middle" x="436.66" y="-84.95" font-family="Times,serif" font-size="14.00">sales.product_sales_overview</text>
</g>
<!-- sales.order&#45;&gt;sales.product_sales_overview -->
<g id="edge4" class="edge">
<title>sales.order&#45;&gt;sales.product_sales_overview</title>
<path fill="none" stroke="black" d="M317.45,-147C338.46,-137.13 367,-123.73 390.88,-112.5"/>
<polygon fill="black" stroke="black" points="392.21,-115.75 399.77,-108.33 389.23,-109.41 392.21,-115.75"/>
</g>
<!-- sales.order&#45;&gt;sales.customer_order_total_percentage -->
<g id="edge5" class="edge">
<title>sales.order&#45;&gt;sales.customer_order_total_percentage</title>
<path fill="none" stroke="black" d="M287.15,-143.79C285.9,-124.97 281.81,-94.51 268.66,-72 262.27,-61.07 252.83,-51.2 243.32,-43.03"/>
<polygon fill="black" stroke="black" points="245.8,-40.54 235.82,-36.97 241.4,-45.98 245.8,-40.54"/>
</g>
<!-- sales.product -->
<g id="node5" class="node">
<title>sales.product</title>
<ellipse fill="none" stroke="blue" cx="436.66" cy="-162" rx="59.54" ry="18"/>
<text text-anchor="middle" x="436.66" y="-156.95" font-family="Times,serif" font-size="14.00">sales.product</text>
</g>
<!-- sales.product&#45;&gt;sales.product_sales_overview -->
<g id="edge6" class="edge">
<title>sales.product&#45;&gt;sales.product_sales_overview</title>
<path fill="none" stroke="black" d="M436.66,-143.7C436.66,-136.41 436.66,-127.73 436.66,-119.54"/>
<polygon fill="black" stroke="black" points="440.16,-119.62 436.66,-109.62 433.16,-119.62 440.16,-119.62"/>
</g>
</g>
</svg>
